<svg id="Layer_1" data-name="Layer 1" xmlns="http://www.w3.org/2000/svg" viewBox="0 0 1352.5 1352.5"><path d="M315.16,422.25c0-22.85-2-32-26.91-32-6.6,0-12.69,1-18.78,1-10.66,0-20.31-5.58-20.31-16.75,0-35,114.22-62.95,189.35-62.95,15.74,0,42.14,1,42.14,22.85,0,25.38-37.06,7.1-38.08,54.82-.5,26.91-1,44.17-1,60.92,0,22.34.51,65.49,4.57,86.81,9.14,45.18,66.5,9.64,66.5,45.68,0,17.77-15.74,22.34-30.46,25.89-26.4,5.59-75.13,9.14-102.54,9.14-17.77,0-141.64-2.54-141.64-37.56,0-12.19,11.17-20.31,22.85-20.31,8.63,0,17.76,3,26.39,3,19.3,0,27.93-13.2,27.93-71.58Z" transform="translate(-74.53 -73.53)" style="fill:#231f20"/><path d="M1034.13,422.41c0-22.84-2-32-26.91-32-6.6,0-12.69,1-18.78,1-10.66,0-20.31-5.59-20.31-16.75,0-35,114.22-62.95,189.35-62.95,15.74,0,42.14,1,42.14,22.84,0,25.38-37.06,7.11-38.08,54.83-.5,26.9-1,44.16-1,60.91,0,22.34.51,65.49,4.57,86.81,9.14,45.18,66.5,9.65,66.5,45.69,0,17.77-15.74,22.34-30.46,25.89-26.4,5.58-75.13,9.14-102.54,9.14-17.77,0-141.64-2.54-141.64-37.57,0-12.18,11.17-20.3,22.85-20.3,8.63,0,17.77,3,26.4,3,19.29,0,27.92-13.2,27.92-71.58Z" transform="translate(-74.53 -73.53)" style="fill:#231f20"/><path d="M660.24,762.41c-37.31,0-71.57-22.46-71.57-62.82,0-48,41.12-72.72,84.9-72.72,33.89,0,69.29,28.93,69.29,64.34C742.86,734.62,700.6,762.41,660.24,762.41Zm-1.9-105.08c-7.61,0-11.42,8-11.42,14.46,0,6.1,5.33,56.73,24.37,56.73,8.75,0,11-8.37,11-15.23C682.33,700,676.62,657.33,658.34,657.33Zm58.63,185c-27,46.07-24,57.11-41.12,57.11-5.71,0-22.46-1.9-22.46-9.89,0-11.81,8.38-11.05,55.59-93.29L797.69,642.1c5.71-11.81,9.9-16.76,23.23-16.76,5.71,0,17.89.77,17.89,8.76,0,11.42-11.42,19.8-49.5,84.91Zm102.8,56.73c-37.69,0-71.58-22.08-71.58-62.82,0-47.59,41.12-72.72,84.91-72.72,33.88,0,69.29,29.32,69.29,64.35C902.39,871.3,860.13,899.09,819.77,899.09ZM817.87,794c-7.62,0-11.42,8-11.42,14.47,0,6.09,5.33,56.73,24.36,56.73,8.76,0,11.05-8.38,11.05-15.23C841.86,836.65,836.14,794,817.87,794Z" transform="translate(-74.53 -73.53)" style="fill:#231f20"/><path d="M220.58,985c-.14-71.34,30.93-80,59.71-80s57.59,7.74,57.63,27c.05,25.68-5.69,32.83-5.68,40,.17,84.9,313.38,94.25,411.26,94.06s411-10.82,410.87-95.71c0-7.14-5.79-14.26-5.84-39.94,0-19.26,28.73-27.17,57.51-27.23s59.9,8.44,60,79.78c.33,166.23-285.08,237.43-522.27,237.91S220.91,1151.21,220.58,985Z" transform="translate(-74.53 -73.53)" style="fill:#231f20"/><rect x="12.5" y="12.5" width="1327.5" height="1327.5" rx="30.46" style="fill:none;stroke:#231f20;stroke-miterlimit:10;stroke-width:25px"/></svg>