<svg id="Layer_1" data-name="Layer 1" xmlns="http://www.w3.org/2000/svg" viewBox="0 0 1126.96 335.67"><path d="M237.5,704.59c-1.27-4.43-2.17-6.1-7-4.71-1.28.37-2.41.9-3.59,1.24-2.07.59-4.25,0-4.88-2.12-1.94-6.8,18.67-18.58,33.26-22.76,3-.88,8.23-2.16,9.44,2.09,1.42,4.92-6.79,3.44-4.33,12.76,1.4,5.25,2.26,8.63,3.19,11.88,1.24,4.33,3.75,12.69,5.72,16.59,4.29,8.27,13.45-1.82,15.45,5.17,1,3.45-1.81,5.21-4.47,6.73a126.36,126.36,0,0,1-19.39,7.47c-3.45,1-27.64,7.4-29.59.6-.68-2.37,1-4.57,3.31-5.22,1.67-.47,3.61-.4,5.28-.89,3.75-1.07,4.69-4.11,1.44-15.44Z" transform="translate(-172.46 -576.08)" style="fill:#231f20"/><path d="M377.08,664.6c-1.27-4.43-2.17-6.1-7-4.71-1.28.37-2.4.9-3.59,1.24-2.07.59-4.25,0-4.87-2.12-1.95-6.8,18.66-18.58,33.25-22.76,3.06-.88,8.23-2.16,9.45,2.08,1.42,4.93-6.8,3.45-4.34,12.77,1.4,5.25,2.27,8.63,3.2,11.88,1.24,4.33,3.74,12.68,5.72,16.59,4.29,8.27,13.44-1.82,15.45,5.17,1,3.45-1.81,5.21-4.47,6.73a126.48,126.48,0,0,1-19.4,7.47c-3.45,1-27.64,7.4-29.59.59-.68-2.36,1-4.56,3.31-5.2,1.68-.48,3.62-.41,5.29-.89,3.75-1.08,4.69-4.12,1.44-15.45Z" transform="translate(-172.46 -576.08)" style="fill:#231f20"/><path d="M355.78,748.77c-1.48.43-1.77,2.19-1.41,3.44s4.19,10.72,7.89,9.66c1.7-.49,1.67-2.24,1.29-3.57-.74-2.58-4.22-10.55-7.77-9.53M362,769.06c-7.32,2.1-15.13-.3-17.4-8.21C342,751.61,348.54,744.45,357,742c6.58-1.89,15.08,1.83,17,8.63,2.42,8.43-4.23,16.18-12.07,18.43Zm-23.11-5.29c-2.68,10.45-1.48,12.42-4.81,13.38-1.11.31-4.46.88-4.91-.67-.66-2.3,1-2.61,5.6-21.21l8.64-34.86c.45-2.61,1-3.81,3.58-4.55,1.1-.32,3.51-.84,4,.71.63,2.21-1.12,4.48-4.89,19.23ZM317.2,731.12c-1.47.42-1.77,2.19-1.41,3.45s4.19,10.71,7.89,9.65c1.7-.48,1.67-2.24,1.29-3.57C324.24,738.07,320.75,730.11,317.2,731.12Zm6.22,20.29c-7.24,2.08-15.14-.37-17.39-8.21-2.67-9.31,3.94-16.4,12.44-18.84,6.58-1.88,15.06,1.76,17,8.63,2.42,8.43-4.24,16.18-12.08,18.42" transform="translate(-172.46 -576.08)" style="fill:#231f20"/><path d="M250.48,819.09c-4-13.84,1.56-17.25,7.14-18.85s11.62-1.71,12.69,2c1.44,5,.72,6.69,1.12,8.08,4.76,16.47,66.08.86,85.07-4.63s79.18-25,74.43-41.45c-.39-1.39-1.91-2.45-3.35-7.43-1.08-3.74,4.06-6.87,9.65-8.49s12.09-1.69,16.09,12.15c9.31,32.25-42.13,62-88.15,75.25S259.8,851.34,250.48,819.09" transform="translate(-172.46 -576.08)" style="fill:#231f20"/><path d="M180.42,650.33l245.86-70.5a6.15,6.15,0,0,1,7.61,4.21L504.4,829.91a6.16,6.16,0,0,1-4.22,7.61L254.31,908a6.15,6.15,0,0,1-7.61-4.21L176.2,657.94A6.14,6.14,0,0,1,180.42,650.33Z" transform="translate(-172.46 -576.08)" style="fill:none;stroke:#231f20;stroke-miterlimit:10;stroke-width:7px"/><path d="M529,732.13h21.45v-62.7c0-3,.14-6,.14-6h-.27a23.94,23.94,0,0,1-4.68,5.63L536.53,678l-8.25-8.52,23.24-22.55h12.1v85.25H584.8V744H529Z" transform="translate(-172.46 -576.08)" style="fill:#231f20"/><path d="M596.21,732.13h21.45v-62.7c0-3,.14-6,.14-6h-.27a23.94,23.94,0,0,1-4.68,5.63L603.77,678l-8.25-8.52,23.24-22.55h12.11v85.25H652V744H596.21Z" transform="translate(-172.46 -576.08)" style="fill:#231f20"/><path d="M662.35,665.58a20.58,20.58,0,0,1,20.77-20.35c11.55,0,20.9,9.21,20.9,20.35a20.84,20.84,0,0,1-41.67,0Zm76.32-18.7H751.6L677.34,744H664.42Zm-45.38,18.7a10.18,10.18,0,1,0-20.35,0,10.18,10.18,0,0,0,20.35,0ZM733,704.91c11.42,0,20.91,9.21,20.91,20.35s-9.49,20.35-20.91,20.35c-11.68,0-20.9-9.08-20.9-20.35A20.61,20.61,0,0,1,733,704.91Zm0,30.52a10.07,10.07,0,0,0,10.18-10.17,10.18,10.18,0,1,0-20.35,0A10,10,0,0,0,733,735.43Z" transform="translate(-172.46 -576.08)" style="fill:#231f20"/><path d="M808.93,646.88h13.62V689.5h50.33V646.88h13.61V744H872.88V701.33H822.55V744H808.93Z" transform="translate(-172.46 -576.08)" style="fill:#231f20"/><path d="M946.44,700.5h3v-1.23c0-11.42-6.47-15.27-15.27-15.27-10.72,0-19.39,6.74-19.39,6.74l-5.5-9.76a43.66,43.66,0,0,1,26-8.25c17.6,0,27.51,9.62,27.51,27.23v44H950.43v-6.6a53.22,53.22,0,0,1,.27-5.5h-.27a24.07,24.07,0,0,1-22.28,13.75c-12,0-23.65-7.29-23.65-21.18C904.5,701.47,934.75,700.5,946.44,700.5ZM931,734.88c11.28,0,18.56-11.82,18.56-22.14v-2.2h-3.43c-10,0-28.19.69-28.19,13.21C918,729.38,922.38,734.88,931,734.88Z" transform="translate(-172.46 -576.08)" style="fill:#231f20"/><path d="M982.74,674.38H995v5.91a49.78,49.78,0,0,1-.27,5.09H995s5.91-12.65,23.38-12.65c18.7,0,30.53,14.85,30.53,36.44,0,22.14-13.34,36.44-31.49,36.44-15.27,0-21.32-11.41-21.32-11.41h-.27s.27,2.47.27,6v31.21H982.74Zm32.59,59.82c11,0,20.08-9.08,20.08-24.89,0-15.13-8.11-24.89-19.66-24.89-10.46,0-20.08,7.28-20.08,25C995.67,721.82,1002.54,734.2,1015.33,734.2Z" transform="translate(-172.46 -576.08)" style="fill:#231f20"/><path d="M1065.25,674.38h12.23v5.91a49.78,49.78,0,0,1-.27,5.09h.27s5.92-12.65,23.38-12.65c18.7,0,30.53,14.85,30.53,36.44,0,22.14-13.34,36.44-31.49,36.44-15.27,0-21.32-11.41-21.32-11.41h-.27s.27,2.47.27,6v31.21h-13.33Zm32.59,59.82c11,0,20.07-9.08,20.07-24.89,0-15.13-8.11-24.89-19.66-24.89-10.45,0-20.08,7.28-20.08,25C1078.17,721.82,1085.05,734.2,1097.84,734.2Z" transform="translate(-172.46 -576.08)" style="fill:#231f20"/><path d="M1147.61,646.88h13.48v13.61h-13.48Zm.14,27.5h13.34V744h-13.34Z" transform="translate(-172.46 -576.08)" style="fill:#231f20"/><path d="M1212,672.73c19.66,0,30.11,14.57,30.11,32.59,0,1.79-.41,5.77-.41,5.77h-50.74c.68,15.27,11.55,23,23.92,23,12,0,20.63-8.11,20.63-8.11l5.5,9.76a41.41,41.41,0,0,1-27,9.9c-21.87,0-36.86-15.82-36.86-36.44C1177.17,687,1192.16,672.73,1212,672.73Zm16.5,28.33c-.42-12-7.84-17.74-16.78-17.74-10.18,0-18.43,6.32-20.35,17.74Z" transform="translate(-172.46 -576.08)" style="fill:#231f20"/><path d="M1258.3,674.38h12.93v12.1a50.58,50.58,0,0,1-.27,5.22h.27c3.16-10.17,11.28-18.15,22-18.15a23.27,23.27,0,0,1,3.44.28V687a19.36,19.36,0,0,0-3.85-.41c-8.53,0-16.36,6-19.53,16.36a42.53,42.53,0,0,0-1.65,12.51V744H1258.3Z" transform="translate(-172.46 -576.08)" style="fill:#231f20"/><path d="M521.27,761.15v-6.88h778.15v6.88Z" transform="translate(-172.46 -576.08)" style="fill:#231f20"/><path d="M530.64,782.45H553c11.57,0,19.93,7.17,19.93,18.55s-8.36,18.81-19.93,18.81H537V844h-6.34Zm21.5,31.94c8.64,0,14.24-5,14.24-13.39s-5.6-13.13-14.15-13.13H537v26.52Z" transform="translate(-172.46 -576.08)" style="fill:#231f20"/><path d="M586.6,800h6.24v26.43c0,6.91,1.11,13,10,13,10.56,0,17.09-8.84,17.09-18.38V800h6.24v44h-6.06V837.4a34.55,34.55,0,0,1,.18-3.5h-.18A19.76,19.76,0,0,1,602,845c-10.84,0-15.43-5.6-15.43-17.07Z" transform="translate(-172.46 -576.08)" style="fill:#231f20"/><path d="M644.76,782.45H651V803.8a35.31,35.31,0,0,1-.18,3.59H651s3.86-8.49,15.71-8.49c12.41,0,20.12,9.45,20.12,23.1,0,13.92-8.72,23-20.85,23a16.85,16.85,0,0,1-15.16-8.58h-.18a33.14,33.14,0,0,1,.18,3.59V844h-6.06Zm20.76,57.32c8.18,0,14.88-6.57,14.88-17.77,0-10.76-6-17.68-14.61-17.68-7.71,0-15,5.26-15,17.77C650.82,830.93,655.6,839.77,665.52,839.77Z" transform="translate(-172.46 -576.08)" style="fill:#231f20"/><path d="M701.9,782.45h6.25v49.79c0,5.78,2.76,6.65,5.15,6.65a14.58,14.58,0,0,0,1.56-.09v5.34a16.11,16.11,0,0,1-2.3.18c-3.86,0-10.66-1.14-10.66-10.77Z" transform="translate(-172.46 -576.08)" style="fill:#231f20"/><path d="M728.37,782.45h6.52v7.43h-6.52Zm.18,17.5h6.25v44h-6.25Z" transform="translate(-172.46 -576.08)" style="fill:#231f20"/><path d="M753,834.34a20.23,20.23,0,0,0,13.78,5.34c5,0,9.28-2.36,9.28-7,0-9.63-24.9-7.27-24.9-21.62,0-7.87,7.44-12.16,15.8-12.16,9.74,0,14.24,4.81,14.24,4.81l-2.84,4.55s-4-4-11.58-4c-4.69,0-9.19,1.92-9.19,6.82,0,9.72,24.9,7.09,24.9,21.62,0,7.17-6.52,12.34-15.8,12.34-11.21,0-17.09-6.39-17.09-6.39Z" transform="translate(-172.46 -576.08)" style="fill:#231f20"/><path d="M797.55,782.45h6.25v23.8a33.47,33.47,0,0,1-.19,3.59h.19c1.74-4.2,7.9-10.94,18.37-10.94,11.39,0,15.44,6.21,15.44,17.06v28h-6.25V817.54c0-6.92-1.1-13-10-13A17.41,17.41,0,0,0,804.53,817a19.89,19.89,0,0,0-.73,5.87V844h-6.25Z" transform="translate(-172.46 -576.08)" style="fill:#231f20"/><path d="M855.34,782.45h6.52v7.43h-6.52Zm.18,17.5h6.25v44h-6.25Z" transform="translate(-172.46 -576.08)" style="fill:#231f20"/><path d="M880.33,800h6.16v6.56a32.52,32.52,0,0,1-.19,3.5h.19c1.65-4,7.53-11.11,18.46-11.11,11.4,0,15.44,6.21,15.44,17.06v28h-6.25V817.54c0-6.92-1.1-13-10-13a17.45,17.45,0,0,0-16.82,12.43,20.79,20.79,0,0,0-.73,6V844h-6.25Z" transform="translate(-172.46 -576.08)" style="fill:#231f20"/><path d="M954.29,857c9,0,16.17-4,16.17-13.82v-4a28.09,28.09,0,0,1,.19-3.15h-.19c-2.75,4.9-7.44,7.7-14.6,7.7-12.41,0-20.58-9.36-20.58-22.57s7.62-22.23,20-22.23c12.22,0,15.26,7.35,15.26,7.35h.18a9.87,9.87,0,0,1-.09-1.49V800h6.06v43c0,14-10.84,19.42-22.14,19.42a35.2,35.2,0,0,1-15.16-3.5l2.39-4.9A29.47,29.47,0,0,0,954.29,857Zm16.27-35.87c0-12.87-6.44-16.81-14.61-16.81-9,0-14.24,6.22-14.24,16.72s6,17.33,15.16,17.33C964.12,838.37,970.56,834.08,970.56,821.13Z" transform="translate(-172.46 -576.08)" style="fill:#231f20"/><path d="M1025.32,782.45h6.34v28h37.48v-28h6.34V844h-6.34V815.88h-37.48V844h-6.34Z" transform="translate(-172.46 -576.08)" style="fill:#231f20"/><path d="M1116.92,798.9c13.51,0,24.44,9.8,24.44,22.84,0,13.3-10.93,23.28-24.44,23.28s-24.44-10-24.44-23.28C1092.48,808.7,1103.42,798.9,1116.92,798.9Zm0,40.78a17.78,17.78,0,0,0,18-17.94c0-10-8.09-17.42-18-17.42s-18,7.44-18,17.42A17.78,17.78,0,0,0,1116.92,839.68Z" transform="translate(-172.46 -576.08)" style="fill:#231f20"/><path d="M1155.88,800h6.24v26.43c0,6.91,1.11,13,10,13,10.57,0,17.09-8.84,17.09-18.38V800h6.25v44h-6.07V837.4a32.76,32.76,0,0,1,.19-3.5h-.19a19.76,19.76,0,0,1-18.1,11.12c-10.84,0-15.43-5.6-15.43-17.07Z" transform="translate(-172.46 -576.08)" style="fill:#231f20"/><path d="M1213.67,834.34a20.26,20.26,0,0,0,13.78,5.34c5,0,9.28-2.36,9.28-7,0-9.63-24.9-7.27-24.9-21.62,0-7.87,7.45-12.16,15.81-12.16,9.73,0,14.24,4.81,14.24,4.81l-2.85,4.55s-4-4-11.58-4c-4.68,0-9.19,1.92-9.19,6.82,0,9.72,24.9,7.09,24.9,21.62,0,7.17-6.52,12.34-15.8,12.34-11.21,0-17.09-6.39-17.09-6.39Z" transform="translate(-172.46 -576.08)" style="fill:#231f20"/><path d="M1277.8,798.9c12.77,0,19.29,9.36,19.29,20.3,0,1-.18,3.06-.18,3.06h-35.46c.27,11.29,8.36,17.42,17.91,17.42a22,22,0,0,0,14.06-5.34l2.85,4.55a27.15,27.15,0,0,1-17.09,6.13c-13.78,0-24.16-9.46-24.16-23C1255,807.56,1265.31,798.9,1277.8,798.9Zm13,18.46c-.36-9.19-6.24-13.47-13.13-13.47-7.72,0-14.43,4.63-15.9,13.47Z" transform="translate(-172.46 -576.08)" style="fill:#231f20"/></svg>