<svg id="Layer_1" data-name="Layer 1" xmlns="http://www.w3.org/2000/svg" viewBox="0 0 949.53 1354.82"><path d="M552.3,72.7l81.13,562h-145l-7.64-101H430l-8.5,101H274.79l72.37-562ZM477.06,434Q466.4,338.5,455.45,198q-21.6,161.4-27.24,236Z" transform="translate(-274.79 -72.7)" style="fill:#231f20"/><path d="M845,72.7V448.27q0,84.35-1.74,108.46a84.65,84.65,0,0,1-15.36,43.57,70.46,70.46,0,0,1-37.14,26.9q-23.43,7.41-70.54,7.46H649.14V536.43c8.5.69,14.66,1,18.57,1,10.06,0,18-2.52,23.86-7.64a28.9,28.9,0,0,0,10.15-18.74c.87-7.38,1.3-21.78,1.3-43V72.7Z" transform="translate(-274.79 -72.7)" style="fill:#231f20"/><path d="M886,72.7H986.52q100.35,0,136,8t58,40.78q22.39,32.81,22.39,104.65,0,65.61-15.79,88.16c-10.59,15-31.33,24-62.4,27.08,28.12,7.2,46.95,16.75,56.67,28.81s15.62,23.08,18.05,33.15,3.47,37.74,3.47,83.13V634.66H1071.12V447.92c0-30.11-2.34-48.68-6.94-55.89s-16.66-10.76-36.18-10.76V634.66H886Zm142,96.15v125c15.88,0,27.07-2.26,33.49-6.77s9.63-19.18,9.63-43.91V212.24c0-17.79-3.12-29.51-9.28-35.06S1044.31,168.85,1028,168.85Z" transform="translate(-274.79 -72.7)" style="fill:#231f20"/><path d="M292.84,688.29H418.68q51,0,78.54,8.25t41.18,23.84c9.25,10.39,15.44,23,18.72,37.75S562,795.79,562,826.74v43.09c0,31.56-3.13,54.63-9.47,69.07s-18,25.6-34.84,33.31-39,11.62-66.4,11.62H417.84v199.26h-125Zm125,84.66V898.86c3.51.23,6.57.31,9.17.31,11.46,0,19.4-2.9,23.91-8.71s6.65-17.88,6.65-36.22V813.6c0-16.89-2.6-27.89-7.72-33S434,773,417.84,773Z" transform="translate(-274.79 -72.7)" style="fill:#231f20"/><path d="M881.92,688.29V1019c0,37.52-1.15,63.8-3.52,79s-9.39,30.8-21.08,46.76-27.05,28.12-46.15,36.37-41.57,12.38-67.54,12.38c-28.65,0-54-4.89-76-14.67s-38.35-22.54-49.28-38.2-17.27-32.24-19.25-49.66-3-54-3-109.87V688.29H721.09v371c0,21.63,1.14,35.38,3.44,41.41s6.87,9,13.75,9c7.94,0,13.06-3.28,15.36-9.93s3.36-22.24,3.36-46.91V688.29Z" transform="translate(-274.79 -72.7)" style="fill:#231f20"/><path d="M930.28,688.29H1055q59,0,89.47,9.48t49.12,38.35q18.69,28.77,18.65,93c0,28.88-4.36,49-13.22,60.43s-26.13,20.17-52,26.29q43.32,10.08,58.75,33.46c10.24,15.59,15.44,39.5,15.44,71.74v45.85q0,50.19-11.16,74.34c-7.41,16-19.25,27.12-35.45,33s-49.43,8.86-99.71,8.86H930.28Zm125,84.66V883c5.27-.23,9.48-.3,12.46-.3,12.22,0,20-3.14,23.38-9.33s5.11-24,5.11-53.33c0-15.51-1.45-26.36-4.2-32.54s-6.34-10.17-10.85-11.77S1068.12,773.18,1055.28,773Zm0,187v138.44c17.57-.61,28.81-3.44,33.62-8.55s7.33-17.65,7.33-37.6v-46.14q0-31.75-6.57-38.51C1085.31,963.12,1073.85,960.6,1055.28,960Z" transform="translate(-274.79 -72.7)" style="fill:#231f20"/><path d="M343.5,1235.56V1386h28.86v37.62H296v-188Z" transform="translate(-274.79 -72.7)" style="fill:#231f20"/><path d="M431.36,1235.56v188h-47.5v-188Z" transform="translate(-274.79 -72.7)" style="fill:#231f20"/><path d="M561.22,1317.43H513.75v-32.69c0-9.5-.49-15.42-1.51-17.77s-3.25-3.54-6.7-3.54c-3.92,0-6.39,1.42-7.47,4.3s-1.56,9-1.56,18.58v87.33q0,13.71,1.56,17.88c1.08,2.79,3.43,4.18,7.12,4.18s5.83-1.39,6.94-4.18,1.62-9.35,1.62-19.68V1348.2h47.47v7.32q0,29.22-4,41.4t-17.71,21.43q-13.71,9.14-33.79,9.17-20.87,0-34.38-7.78t-17.94-21.54q-4.4-13.77-4.38-41.4v-54.93q0-20.34,1.33-30.49a43.41,43.41,0,0,1,8.07-19.56A45.23,45.23,0,0,1,477.05,1237q11.9-5.4,27.35-5.4,21,0,34.61,8.36c9.12,5.55,15.07,12.48,17.94,20.82s4.27,21.22,4.27,38.78Z" transform="translate(-274.79 -72.7)" style="fill:#231f20"/><path d="M660.34,1235.56l27.14,188H639l-2.56-33.79h-17l-2.85,33.79H567.49l24.21-188Zm-25.17,120.89q-3.57-32-7.23-79-7.23,54-9.12,79Z" transform="translate(-274.79 -72.7)" style="fill:#231f20"/><path d="M791.19,1235.56v37.62H763v150.39H715.53V1273.18H687.45v-37.62Z" transform="translate(-274.79 -72.7)" style="fill:#231f20"/><path d="M849.48,1235.56v188H802v-188Z" transform="translate(-274.79 -72.7)" style="fill:#231f20"/><path d="M977,1345.65c0,18.9-.43,32.25-1.3,40.12a45.9,45.9,0,0,1-8.1,21.54,44,44,0,0,1-18.47,15q-11.58,5.24-27.06,5.23a67.09,67.09,0,0,1-26.33-4.94,43.22,43.22,0,0,1-18.75-14.8,45,45,0,0,1-8.48-21.49q-1.35-11.62-1.34-40.64v-32.17c0-18.9.44-32.25,1.28-40.12a45.63,45.63,0,0,1,8.13-21.54,44,44,0,0,1,18.44-15q11.63-5.22,27.05-5.22a67.18,67.18,0,0,1,26.34,4.93,43.33,43.33,0,0,1,18.78,14.81,45.27,45.27,0,0,1,8.45,21.48q1.35,11.64,1.36,40.65Zm-47.46-61.78c0-8.74-.5-14.34-1.43-16.78s-2.87-3.66-5.8-3.66a6.42,6.42,0,0,0-5.69,3c-1.31,2-2,7.81-2,17.48v87.79q0,16.38,1.31,20.21c.84,2.55,2.87,3.83,6,3.83s5.31-1.48,6.21-4.41,1.37-10,1.37-21Z" transform="translate(-274.79 -72.7)" style="fill:#231f20"/><path d="M1100.7,1235.56v188h-41.6l-24.71-85.47v85.47H994.7v-188h39.69l26.62,84.66v-84.66Z" transform="translate(-274.79 -72.7)" style="fill:#231f20"/><path d="M1220.37,1292.46h-44.1v-13.93c0-6.51-.55-10.66-1.68-12.43s-3-2.67-5.63-2.67a7.15,7.15,0,0,0-6.51,3.6q-2.17,3.62-2.17,10.91c0,6.28.81,11,2.46,14.2s6,7,13.42,11.5q31.69,19.38,39.92,31.79t8.24,40.06c0,13.39-1.54,23.26-4.56,29.62s-8.94,11.67-17.65,16-18.87,6.44-30.45,6.44q-19.08,0-32.55-7.43t-17.62-18.93q-4.18-11.51-4.18-32.63v-12.31h44.1v22.87c0,7.06.61,11.59,1.86,13.59s3.42,3,6.59,3a7.7,7.7,0,0,0,7.05-3.83q2.31-3.84,2.3-11.38c0-11.06-1.46-18.32-4.39-21.72s-10.42-9.09-22.21-17.07-19.62-13.91-23.46-17.54-7-8.68-9.55-15.09-3.77-14.63-3.77-24.62q0-21.6,5.37-31.59t17.3-15.62c8-3.74,17.6-5.63,28.86-5.63q18.51,0,31.53,6.15t17.25,15.51q4.21,9.36,4.23,31.76Z" transform="translate(-274.79 -72.7)" style="fill:#231f20"/></svg>