<svg id="Layer_1" data-name="Layer 1" xmlns="http://www.w3.org/2000/svg" viewBox="0 0 1309.09 554.38"><path d="M749.9,904.56c0,67.7-149.74,154.36-334.45,154.36S81,975,81,904.56,230.74,750.2,415.45,750.2,749.9,836.84,749.9,904.56Z" transform="translate(-81 -504.54)" style="fill:#99a8ae"/><path d="M732.14,942.47c0,27.08-132.6,116.45-318.8,116.45S94.54,972.26,94.54,942.47,237.27,826,413.34,826,732.14,915.38,732.14,942.47Z" transform="translate(-81 -504.54)" style="fill:#6f828a"/><path d="M686.55,987.85s-95.87,71.07-275.7,71.07c-164,0-272.42-71.07-272.42-71.07S258.6,916.8,410.85,916.8,686.55,987.85,686.55,987.85Z" transform="translate(-81 -504.54)" style="fill:#302b3b"/><path d="M156.5,573.35h22.94v32.76q13.59-18.68,31.26-28t39.44-9.34q38,0,65,27.36t27,65.86q0,39.32-26.76,66.75t-64.57,27.44a86.89,86.89,0,0,1-39.11-8.84q-17.84-8.85-32.24-26.38v95.84H156.5Zm91.75,17.53q-29.76,0-50.1,20.78T177.8,663.37q0,20.29,9.07,36.49a66.21,66.21,0,0,0,26,25.69A71.88,71.88,0,0,0,248.57,735a67.33,67.33,0,0,0,34.73-9.57,70.18,70.18,0,0,0,25.91-26.76,72.28,72.28,0,0,0,.08-72,69.06,69.06,0,0,0-61-35.84Z" transform="translate(-81 -504.54)" style="fill:#99a8ae"/><path d="M469.4,568.76q41.21,0,68.28,29.82,24.62,27.2,24.61,64.38,0,37.35-26,65.28T469.4,756.17q-41,0-67-27.93t-26-65.28q0-37,24.62-64.22Q428,568.76,469.4,568.76Zm-.08,22.44q-28.6,0-49.15,21.14t-20.55,51.11a72.45,72.45,0,0,0,9.37,36,66.27,66.27,0,0,0,25.32,25.8,72,72,0,0,0,70,0,66.41,66.41,0,0,0,25.32-25.8,72.55,72.55,0,0,0,9.37-36q0-30-20.63-51.11T469.32,591.2Z" transform="translate(-81 -504.54)" style="fill:#99a8ae"/><path d="M624.71,507.16h22.93v66.19H684v19.82H647.64V751.59H624.71V593.17H593.42V573.35h31.29Z" transform="translate(-81 -504.54)" style="fill:#99a8ae"/><path d="M718.41,504.54h22.94V605.29q13.92-18.35,30.63-27.44a74.57,74.57,0,0,1,36.21-9.09q20,0,35.47,10.16a60.6,60.6,0,0,1,22.85,27.27q7.37,17.13,7.37,53.66v91.74H851v-85q0-30.79-2.46-41.12-4.26-17.69-15.48-26.62t-29.41-8.93q-20.8,0-37.27,13.76a64.59,64.59,0,0,0-21.71,34.08q-3.27,13.11-3.27,48.49v65.37H718.41Z" transform="translate(-81 -504.54)" style="fill:#99a8ae"/><path d="M1007.4,568.76q41.19,0,68.27,29.82,24.61,27.2,24.61,64.38,0,37.35-26,65.28t-66.87,27.93q-41,0-67-27.93t-26-65.28q0-37,24.61-64.22Q966,568.76,1007.4,568.76Zm-.09,22.44q-28.6,0-49.15,21.14t-20.55,51.11a72.45,72.45,0,0,0,9.37,36,66.27,66.27,0,0,0,25.32,25.8,72,72,0,0,0,70,0,66.41,66.41,0,0,0,25.32-25.8,72.45,72.45,0,0,0,9.37-36q0-30-20.63-51.11T1007.31,591.2Z" transform="translate(-81 -504.54)" style="fill:#99a8ae"/><path d="M1139.27,504.54h22.94V751.59h-22.94Z" transform="translate(-81 -504.54)" style="fill:#99a8ae"/><path d="M1359.94,692.45l19.33,10.15q-9.51,18.67-22,30.15a87.3,87.3,0,0,1-28,17.44q-15.59,6-35.26,6-43.61,0-68.21-28.58T1201.2,663A95.29,95.29,0,0,1,1222,602.51q26.4-33.75,70.67-33.75,45.58,0,72.8,34.57,19.35,24.4,19.68,60.94H1224.79q.64,31.05,19.84,50.91T1292,735a76.27,76.27,0,0,0,26.48-4.73,69.81,69.81,0,0,0,21.9-12.57Q1349.45,709.91,1359.94,692.45Zm0-48q-4.59-18.35-13.37-29.33a63.37,63.37,0,0,0-23.21-17.69,71.05,71.05,0,0,0-30.34-6.72q-26.25,0-45.11,16.88-13.79,12.28-20.83,36.86Z" transform="translate(-81 -504.54)" style="fill:#99a8ae"/><path d="M623.89,751.14h22.93v32.77q13.59-18.67,31.26-28t39.44-9.34q38,0,65,27.36t27,65.85q0,39.32-26.76,66.76T718.18,934a86.81,86.81,0,0,1-39.12-8.85q-17.84-8.83-32.24-26.37v95.83H623.89Zm91.74,17.53q-29.75,0-50.1,20.79t-20.35,51.7q0,20.3,9.08,36.5a66.12,66.12,0,0,0,26,25.69A72,72,0,0,0,716,912.84a67.3,67.3,0,0,0,34.73-9.58,70.27,70.27,0,0,0,25.9-26.75,72.23,72.23,0,0,0,.08-72,69.06,69.06,0,0,0-61-35.84Z" transform="translate(-81 -504.54)" style="fill:#302b3b"/><path d="M843.74,751.14h23.43v26.05q10.47-15.39,22.11-23a43.64,43.64,0,0,1,24.25-7.62q9.5,0,20.31,6.06l-12,19.33q-7.2-3.11-12.12-3.11-11.47,0-22.12,9.42T871.42,807.5q-4.26,15.24-4.25,61.6v60.28H843.74Z" transform="translate(-81 -504.54)" style="fill:#302b3b"/><path d="M1102.09,870.24l19.33,10.16q-9.51,18.68-22,30.14a87.33,87.33,0,0,1-28,17.45q-15.59,6-35.26,6-43.62,0-68.21-28.59t-24.6-64.62a95.29,95.29,0,0,1,20.83-60.46q26.39-33.74,70.67-33.74,45.59,0,72.8,34.56,19.35,24.42,19.68,61H966.93q.66,31,19.85,50.91t47.4,19.86a76.07,76.07,0,0,0,26.49-4.74,69.71,69.71,0,0,0,21.9-12.56Q1091.59,887.71,1102.09,870.24Zm0-48q-4.59-18.35-13.37-29.32a63.26,63.26,0,0,0-23.21-17.69,71.08,71.08,0,0,0-30.34-6.72q-26.25,0-45.11,16.87-13.78,12.29-20.83,36.86Z" transform="translate(-81 -504.54)" style="fill:#302b3b"/><path d="M1259.69,770.64l-14.75,15.24Q1226.54,768,1209,768a27.16,27.16,0,0,0-19.13,7.37q-8,7.36-8,17.2,0,8.68,6.57,16.55,6.55,8,27.58,18.84,25.61,13.26,34.8,25.55a46.56,46.56,0,0,1,9,28q0,21.94-15.43,37.18T1205.87,934a67.31,67.31,0,0,1-29.45-6.72,63.89,63.89,0,0,1-23.22-18.51l14.42-16.38q17.57,19.82,37.27,19.82a33.56,33.56,0,0,0,23.48-8.85q9.69-8.83,9.69-20.8a26.67,26.67,0,0,0-6.4-17.53q-6.4-7.53-28.9-19-24.13-12.45-32.83-24.58a46.26,46.26,0,0,1-8.7-27.68q0-20.31,13.86-33.75t35-13.43Q1234.74,746.56,1259.69,770.64Z" transform="translate(-81 -504.54)" style="fill:#302b3b"/><path d="M1389.93,770.64l-14.75,15.24q-18.39-17.86-36-17.86a27.16,27.16,0,0,0-19.13,7.37q-8,7.36-8,17.2,0,8.68,6.56,16.55,6.57,8,27.59,18.84,25.6,13.26,34.8,25.55a46.56,46.56,0,0,1,9,28q0,21.94-15.43,37.18T1336.11,934a67.31,67.31,0,0,1-29.45-6.72,63.89,63.89,0,0,1-23.22-18.51l14.42-16.38q17.57,19.82,37.27,19.82a33.56,33.56,0,0,0,23.48-8.85q9.69-8.83,9.69-20.8a26.67,26.67,0,0,0-6.4-17.53q-6.4-7.53-28.9-19-24.13-12.45-32.83-24.58a46.26,46.26,0,0,1-8.7-27.68q0-20.31,13.86-33.75t35-13.43Q1365,746.56,1389.93,770.64Z" transform="translate(-81 -504.54)" style="fill:#302b3b"/></svg>